<?xml version="1.0" encoding="utf-8"?>
<!-- Generator: Adobe Illustrator 16.0.0, SVG Export Plug-In . SVG Version: 6.00 Build 0)  -->
<!DOCTYPE svg PUBLIC "-//W3C//DTD SVG 1.1//EN" "http://www.w3.org/Graphics/SVG/1.1/DTD/svg11.dtd">
<svg version="1.1" id="Layer_1" xmlns="http://www.w3.org/2000/svg" xmlns:xlink="http://www.w3.org/1999/xlink" x="0px" y="0px"
	 width="1879.05px" height="870.997px" viewBox="-468.396 -588.408 1879.05 870.997"
	 enable-background="new -468.396 -588.408 1879.05 870.997" xml:space="preserve">
<g>
	<g>
		<g>
			<defs>
				<rect id="SVGID_1_" x="-468.396" y="-588.408" width="1879.05" height="870.997"/>
			</defs>
			<clipPath id="SVGID_2_">
				<use xlink:href="#SVGID_1_"  overflow="visible"/>
			</clipPath>
			<g opacity="0.7" clip-path="url(#SVGID_2_)">
				<rect x="-467.654" y="-1332.27" fill="none" width="2605.493" height="1957.294"/>
				<g>
					<g>
						<rect x="1780.094" y="-563.909" fill="none" width="357.617" height="472.764"/>
						<polygon fill="#E9E9EA" points="2137.711,-91.145 1780.094,-315.954 2137.427,-563.909 						"/>
					</g>
				</g>
				<g>
					<g>
						<rect x="1413.145" y="-317.369" fill="none" width="328.067" height="423.444"/>
						<polygon fill="#D1D2D4" points="1741.212,106.075 1737.245,94.925 1664.215,-317.369 1413.147,-38.096 						"/>
					</g>
				</g>
				<g>
					<g>
						<rect x="1034.793" y="32.21" fill="none" width="389.549" height="282.28"/>
						<polygon fill="#D1D2D4" points="1034.795,32.21 1229.65,314.49 1424.342,240.318 						"/>
					</g>
				</g>
				<g>
					<g>
						<rect x="1034.589" y="-38.288" fill="none" width="389.709" height="278.5"/>
						<polygon fill="#E5E6E7" points="1424.295,240.212 1413.19,-38.288 1034.589,32.255 						"/>
					</g>
				</g>
				<g>
					<g>
						<rect x="835.583" y="118.57" fill="none" width="394.046" height="506.013"/>
						<polygon fill="#E5E6E7" points="835.583,118.57 1229.544,624.579 1229.624,314.774 						"/>
					</g>
				</g>
				<g>
					<g>
						<rect x="835.385" y="32.46" fill="none" width="394.195" height="396.333"/>
						<polygon fill="#DCDDDF" points="1229.58,314.662 1035.057,32.485 1034.505,32.46 835.385,118.613 926.898,428.793 						"/>
					</g>
				</g>
				<g>
					<g>
						<rect x="1664.226" y="-317.381" fill="none" width="473.181" height="424.386"/>
						<polygon fill="#E9E9EA" points="1664.226,-317.381 1738.966,107.004 2137.408,-90.962 						"/>
					</g>
				</g>
				<g>
					<g>
						<rect x="1664.019" y="-317.332" fill="none" width="473.331" height="226.256"/>
						<polygon fill="#D8D9DB" points="2137.35,-91.075 1779.859,-315.954 1664.019,-317.332 						"/>
					</g>
				</g>
				<g>
					<g>
						<rect x="448.89" y="-454.52" fill="none" width="386.521" height="573.205"/>
						<polygon fill="#E9E9EA" points="835.411,118.686 448.89,-454.516 759.262,-325.071 						"/>
					</g>
				</g>
				<g>
					<g>
						<rect x="518.114" y="118.753" fill="none" width="711.499" height="505.897"/>
						<polygon fill="#D1D2D4" points="1229.612,624.648 835.146,624.528 835.146,624.541 835.136,624.528 835.11,624.541 
							835.11,624.49 518.114,224.774 835.314,118.753 835.11,468.842 835.388,118.753 						"/>
					</g>
				</g>
				<g>
					<g>
						<rect x="183.875" y="435.471" fill="none" width="756.899" height="189.071"/>
						<polygon fill="#E5E6E7" points="183.875,624.541 291.883,589.964 940.768,435.471 835.146,624.521 						"/>
					</g>
				</g>
				<g>
					<g>
						<rect x="-467.59" y="428.793" fill="none" width="651.258" height="195.748"/>
						<polygon fill="#D8D9DB" points="-467.59,624.541 53.41,428.793 183.67,624.521 						"/>
					</g>
				</g>
				<g>
					<g>
						<rect x="-467.654" y="-361.94" fill="none" width="792.773" height="324.716"/>
						<polygon fill="#F7F8F9" points="-467.654,-37.224 325.119,-188.049 191.677,-361.942 						"/>
					</g>
				</g>
				<g>
					<g>
						<rect x="-467.597" y="-354.262" fill="none" width="0.006" height="489.326"/>
						<polygon fill="#E5E6E7" points="-467.59,-354.262 -467.597,-37.028 -467.59,135.064 						"/>
					</g>
				</g>
				<g>
					<g>
						<rect x="-467.59" y="135.218" fill="none" width="260.51" height="489.323"/>
						<polygon fill="#F3F4F4" points="-467.59,135.218 -207.079,526.684 -467.59,624.541 						"/>
					</g>
				</g>
				<g>
					<g>
						<rect x="-467.59" y="-361.909" fill="none" width="659.105" height="324.843"/>
						<polygon fill="#D1D2D4" points="191.515,-361.909 -170.485,-284.416 -467.59,-37.066 						"/>
					</g>
				</g>
				<g>
					<g>
						<rect x="183.455" y="224.789" fill="none" width="757.035" height="399.638"/>
						<polygon fill="#F3F4F4" points="183.455,624.427 297.897,588.511 940.49,435.572 518.04,224.789 						"/>
					</g>
				</g>
				<g>
					<g>
						<rect x="53.285" y="224.825" fill="none" width="464.592" height="399.756"/>
						<polygon fill="#E9E9EA" points="517.878,224.825 53.285,428.837 183.51,624.579 						"/>
					</g>
				</g>
				<g>
					<g>
						<rect x="53.695" y="-60.685" fill="none" width="464.354" height="391.968"/>
						<polygon fill="#F3F4F4" points="53.695,-60.685 454.85,331.283 518.049,224.789 						"/>
					</g>
				</g>
				<g>
					<g>
						<rect x="53.482" y="-188.01" fill="none" width="464.523" height="412.688"/>
						<polygon fill="#D1D2D4" points="518.006,224.679 325.119,-188.01 53.482,-60.633 						"/>
					</g>
				</g>
				<g>
					<g>
						<rect x="-467.29" y="-37.25" fill="none" width="922.23" height="465.805"/>
						<polygon fill="#D1D2D4" points="-467.29,-37.25 53.444,428.556 454.94,331.188 						"/>
					</g>
				</g>
				<g>
					<g>
						<rect x="-467.507" y="-60.825" fill="none" width="922.412" height="391.906"/>
						<polygon fill="#E5E6E7" points="454.903,331.081 53.524,-60.825 -467.507,-37.203 						"/>
					</g>
				</g>
				<g>
					<g>
						<rect x="-467.38" y="135.031" fill="none" width="520.8" height="391.575"/>
						<polygon fill="#E5E6E7" points="-467.38,135.031 -207.153,526.606 53.42,428.843 						"/>
					</g>
				</g>
				<g>
					<g>
						<rect x="-467.59" y="-37.002" fill="none" width="520.965" height="465.729"/>
						<polygon fill="#DCDDDF" points="53.375,428.728 -467.59,-37.002 -467.59,135.079 						"/>
					</g>
				</g>
				<g>
					<g>
						<rect x="325.119" y="-188.023" fill="none" width="509.981" height="412.765"/>
						<polygon fill="#E9E9EA" points="325.119,-188.023 517.808,224.742 835.099,118.871 						"/>
					</g>
				</g>
				<g>
					<g>
						<rect x="324.922" y="-454.52" fill="none" width="510.128" height="573.276"/>
						<polygon fill="#D8D9DB" points="835.052,118.753 448.89,-454.52 324.922,-187.966 						"/>
					</g>
				</g>
				<g>
					<g>
						<rect x="1486.579" y="-1332.678" fill="none" width="651.258" height="219.097"/>
						<polygon fill="#D1D2D4" points="2137.837,-1332.438 1664.096,-1113.585 1486.579,-1332.678 						"/>
					</g>
				</g>
				<g>
					<g>
						<rect x="1812.326" y="-1332.601" fill="none" width="325.423" height="293.404"/>
						<polygon fill="#E9E9EA" points="2137.711,-1039.196 1812.326,-1332.597 2137.747,-1332.597 						"/>
					</g>
				</g>
				<g>
					<g>
						<rect x="1877.268" y="-1039.12" fill="none" width="260.356" height="475.513"/>
						<polygon fill="#D1D2D4" points="2137.515,-563.607 1877.268,-745.314 2137.627,-1039.122 						"/>
					</g>
				</g>
				<g>
					<g>
						<rect x="1404.791" y="-563.75" fill="none" width="732.724" height="246.381"/>
						<polygon fill="#E5E6E7" points="2137.452,-563.733 2137.515,-563.631 2137.195,-563.631 1664.193,-317.369 1405.043,-324.538 
							1404.791,-324.538 1405,-324.613 1404.791,-324.918 1405.816,-324.918 2007.58,-549.629 2137.433,-563.75 2137.515,-563.75 
													"/>
					</g>
				</g>
				<g>
					<g>
						<rect x="759.332" y="-325.155" fill="none" width="645.252" height="178.839"/>
						<polygon fill="#D8D9DB" points="1404.521,-324.652 1404.587,-324.554 1404.26,-324.554 896.828,-146.316 759.583,-324.76 
							759.332,-324.76 759.528,-324.841 759.332,-325.155 760.356,-325.155 1186.21,-325.059 1404.505,-324.675 1404.587,-324.675 
													"/>
					</g>
				</g>
				<g>
					<g>
						<rect x="835.11" y="-1332.678" fill="none" width="651.267" height="195.775"/>
						<polygon fill="#E9E9EA" points="1486.377,-1332.438 965.229,-1136.902 835.11,-1332.678 						"/>
					</g>
				</g>
				<g>
					<g>
						<rect x="1160.57" y="-1332.712" fill="none" width="503.549" height="541.271"/>
						<polygon fill="#F7F8F9" points="1160.57,-791.442 1664.119,-1113.611 1486.607,-1332.716 						"/>
					</g>
				</g>
				<g>
					<g>
						<rect x="835.11" y="-1332.678" fill="none" width="325.514" height="541.433"/>
						<polygon fill="#E5E6E7" points="835.11,-1332.682 1160.625,-791.241 835.11,-843.356 						"/>
					</g>
				</g>
				<g>
					<g>
						<rect x="965.402" y="-1332.678" fill="none" width="521.054" height="541.39"/>
						<polygon fill="#D1D2D4" points="1486.456,-1332.682 965.402,-1136.999 1160.631,-791.287 						"/>
					</g>
				</g>
				<g>
					<g>
						<rect x="1404.357" y="-745.308" fill="none" width="602.945" height="420.655"/>
						<polygon fill="#F3F4F4" points="1404.357,-324.652 2007.303,-549.52 1877.19,-745.308 						"/>
					</g>
				</g>
				<g>
					<g>
						<rect x="1186.084" y="-745.266" fill="none" width="690.953" height="420.766"/>
						<polygon fill="#E9E9EA" points="1877.037,-745.266 1186.084,-325.014 1404.424,-324.499 						"/>
					</g>
				</g>
				<g>
					<g>
						<rect x="1356.394" y="-1039.099" fill="none" width="520.81" height="294.58"/>
						<polygon fill="#F3F4F4" points="1356.394,-1039.103 1593.978,-744.514 1877.203,-745.302 						"/>
					</g>
				</g>
				<g>
					<g>
						<rect x="1356.188" y="-1113.576" fill="none" width="520.973" height="368.17"/>
						<polygon fill="#D1D2D4" points="1877.16,-745.406 1664.111,-1113.576 1356.188,-1039.054 						"/>
					</g>
				</g>
				<g>
					<g>
						<rect x="1160.92" y="-791.465" fill="none" width="433.155" height="466.166"/>
						<polygon fill="#D1D2D4" points="1160.92,-791.467 1186.242,-325.301 1594.075,-744.607 						"/>
					</g>
				</g>
				<g>
					<g>
						<rect x="1160.71" y="-1039.24" fill="none" width="433.319" height="294.531"/>
						<polygon fill="#E5E6E7" points="1594.032,-744.712 1356.23,-1039.243 1160.71,-791.416 						"/>
					</g>
				</g>
				<g>
					<g>
						<rect x="835.317" y="-843.386" fill="none" width="350.901" height="518.379"/>
						<polygon fill="#E5E6E7" points="835.32,-843.39 1089.59,-482.691 1186.221,-325.008 						"/>
					</g>
				</g>
				<g>
					<g>
						<rect x="835.11" y="-843.344" fill="none" width="351.062" height="518.221"/>
						<polygon fill="#DCDDDF" points="1186.172,-325.124 1160.631,-791.217 835.11,-843.344 						"/>
					</g>
				</g>
				<g>
					<g>
						<rect x="1664.119" y="-1113.586" fill="none" width="473.287" height="368.255"/>
						<polygon fill="#E9E9EA" points="1664.119,-1113.586 1876.953,-745.331 2137.406,-1039.006 						"/>
					</g>
				</g>
				<g>
					<g>
						<rect x="1663.913" y="-1332.601" fill="none" width="473.437" height="293.481"/>
						<polygon fill="#D8D9DB" points="2137.35,-1039.122 1812.092,-1332.601 1663.916,-1113.539 						"/>
					</g>
				</g>
				<g>
					<g>
						<rect x="183.875" y="-1332.678" fill="none" width="651.27" height="219.109"/>
						<polygon fill="#D1D2D4" points="835.146,-1332.438 583.979,-1113.568 183.875,-1332.678 						"/>
					</g>
				</g>
				<g>
					<g>
						<rect x="508.105" y="-1332.712" fill="none" width="327.04" height="489.436"/>
						<polygon fill="#E9E9EA" points="835.146,-843.276 508.105,-1332.716 835.046,-1332.601 						"/>
					</g>
				</g>
				<g>
					<g>
						<rect x="599.417" y="-843.2" fill="none" width="490.247" height="518.44"/>
						<polygon fill="#D1D2D4" points="1089.664,-482.617 759.36,-324.777 759.36,-324.76 759.351,-324.777 759.332,-324.76 
							759.332,-324.816 599.417,-703.309 835.044,-843.2 759.36,-324.76 835.11,-843.2 						"/>
					</g>
				</g>
				<g>
					<g>
						<rect x="191.642" y="-566.619" fill="none" width="606.042" height="378.609"/>
						<polygon fill="#E5E6E7" points="759.298,-324.881 759.36,-324.791 759.035,-324.791 460.918,-458.375 325.103,-188.01 
							191.909,-361.525 191.642,-361.525 191.854,-361.603 191.642,-361.918 192.663,-361.918 797.685,-566.622 759.278,-324.913 
							759.36,-324.913 						"/>
					</g>
				</g>
				<g>
					<g>
						<rect x="-467.59" y="-532.279" fill="none" width="659.034" height="247.958"/>
						<polygon fill="#D8D9DB" points="191.371,-361.646 191.445,-361.552 191.12,-361.552 -170.645,-284.321 -467.337,-353.875 
							-467.59,-353.875 -467.38,-353.959 -467.59,-354.261 -466.566,-354.261 -170.44,-532.279 191.352,-361.672 191.445,-361.672 
													"/>
					</g>
				</g>
				<g>
					<g>
						<rect x="-467.59" y="-1332.678" fill="none" width="651.258" height="98.646"/>
						<polygon fill="#E9E9EA" points="183.67,-1332.438 -255.506,-1255.156 -335.051,-1234.036 -467.59,-1332.678 						"/>
					</g>
				</g>
				<g>
					<g>
						<rect x="-301.445" y="-1332.712" fill="none" width="885.445" height="524.302"/>
						<polygon fill="#F7F8F9" points="-301.445,-808.41 583.998,-1113.607 183.903,-1332.716 						"/>
					</g>
				</g>
				<g>
					<g>
						<rect x="-467.59" y="-1332.678" fill="none" width="166.2" height="524.463"/>
						<polygon fill="#E5E6E7" points="-467.59,-1332.682 -401.858,-1047.564 -301.391,-808.211 -467.59,-843.356 						"/>
					</g>
				</g>
				<g>
					<g>
						<rect x="-467.59" y="-843.2" fill="none" width="296.946" height="558.878"/>
						<polygon fill="#F3F4F4" points="-467.59,-843.2 -170.645,-284.321 -467.59,-353.875 						"/>
					</g>
				</g>
				<g>
					<g>
						<rect x="-334.891" y="-1332.678" fill="none" width="518.641" height="524.422"/>
						<polygon fill="#D1D2D4" points="183.751,-1332.682 -255.506,-1255.153 -334.891,-1234.131 -301.373,-808.25 						"/>
					</g>
				</g>
				<g>
					<g>
						<rect x="191.228" y="-703.305" fill="none" width="606.183" height="341.663"/>
						<polygon fill="#F3F4F4" points="191.228,-361.641 797.408,-566.514 599.35,-703.3 						"/>
					</g>
				</g>
				<g>
					<g>
						<rect x="-170.563" y="-703.263" fill="none" width="769.75" height="341.777"/>
						<polygon fill="#E9E9EA" points="599.187,-703.263 -170.563,-532.229 191.283,-361.48 						"/>
					</g>
				</g>
				<g>
					<g>
						<rect x="370.226" y="-964.126" fill="none" width="229.124" height="268.582"/>
						<polygon fill="#F3F4F4" points="521.091,-964.126 370.226,-695.545 599.35,-703.297 						"/>
					</g>
				</g>
				<g>
					<g>
						<rect x="91.709" y="-1113.564" fill="none" width="507.597" height="410.157"/>
						<polygon fill="#D1D2D4" points="599.311,-703.407 583.998,-1113.559 91.712,-843.2 						"/>
					</g>
				</g>
				<g>
					<g>
						<rect x="-301.086" y="-808.433" fill="none" width="671.403" height="275.914"/>
						<polygon fill="#D1D2D4" points="-301.086,-808.436 -170.401,-532.522 370.316,-695.629 						"/>
					</g>
				</g>
				<g>
					<g>
						<rect x="-301.303" y="-1332.678" fill="none" width="671.582" height="636.939"/>
						<polygon fill="#E5E6E7" points="370.279,-695.738 183.875,-1332.682 -255.506,-1255.153 -301.303,-808.385 						"/>
					</g>
				</g>
				<g>
					<g>
						<rect x="-467.59" y="-843.386" fill="none" width="297.169" height="810.776"/>
						<polygon fill="#E5E6E7" points="-467.38,-843.39 -467.59,-32.61 -170.421,-532.225 						"/>
					</g>
				</g>
				<g>
					<g>
						<rect x="-467.59" y="-843.344" fill="none" width="297.115" height="311.005"/>
						<polygon fill="#DCDDDF" points="-170.474,-532.339 -301.373,-808.186 -467.59,-843.344 						"/>
					</g>
				</g>
				<g>
					<g>
						<rect x="583.998" y="-1113.576" fill="none" width="250.83" height="410.247"/>
						<polygon fill="#E9E9EA" points="583.998,-1113.577 599.113,-703.327 834.83,-843.084 						"/>
					</g>
				</g>
				<g>
					<g>
						<rect x="507.873" y="-1332.712" fill="none" width="326.906" height="489.513"/>
						<polygon fill="#D8D9DB" points="834.783,-843.2 507.873,-1332.716 583.801,-1113.526 						"/>
					</g>
				</g>
				<g>
					<g>
						<rect x="-467.654" y="-1332.27" fill="none" width="2605.493" height="1957.294"/>
						<g>
							<rect x="-467.654" y="-1332.27" fill="none" width="2605.493" height="1957.294"/>
							
								<linearGradient id="SVGID_3_" gradientUnits="userSpaceOnUse" x1="1319.6582" y1="1011.1348" x2="1322.921" y2="1011.1348" gradientTransform="matrix(0 768.7806 -768.7806 0 778175.8125 -1015996.875)">
								<stop  offset="0" style="stop-color:#0C73B3"/>
								<stop  offset="0.1066" style="stop-color:#0D78AE"/>
								<stop  offset="0.3167" style="stop-color:#1187A2"/>
								<stop  offset="0.5497" style="stop-color:#18988E"/>
								<stop  offset="0.599" style="stop-color:#379D92"/>
								<stop  offset="0.6904" style="stop-color:#64A99D"/>
								<stop  offset="0.8141" style="stop-color:#9BC1B2"/>
								<stop  offset="0.9637" style="stop-color:#E5EAD3"/>
								<stop  offset="1" style="stop-color:#F9F7DD"/>
							</linearGradient>
							<rect x="-467.654" y="-1332.27" fill="url(#SVGID_3_)" width="2605.493" height="1957.294"/>
						</g>
					</g>
				</g>
				<polygon opacity="0.5" fill="none" stroke="#FFFFFF" stroke-miterlimit="10" enable-background="new    " points="
					2137.837,-1331.661 1152.188,-932.379 835.56,-1332.149 				"/>
				<polygon opacity="0.5" fill="none" stroke="#FFFFFF" stroke-miterlimit="10" enable-background="new    " points="
					2071.006,-349.214 1877.25,-1062.045 2137.659,-1331.989 				"/>
				<polygon opacity="0.5" fill="none" stroke="#FFFFFF" stroke-miterlimit="10" enable-background="new    " points="
					2137.837,624.892 1674.506,-306.699 2137.656,-353.486 				"/>
				<polygon opacity="0.5" fill="none" stroke="#FFFFFF" stroke-miterlimit="10" enable-background="new    " points="
					-190.229,624.971 1669.664,168.327 2137.834,624.851 				"/>
				<polygon opacity="0.5" fill="none" stroke="#FFFFFF" stroke-miterlimit="10" enable-background="new    " points="
					-467.12,285.107 513.753,60.736 835.159,624.848 				"/>
				<polygon opacity="0.5" fill="none" stroke="#FFFFFF" stroke-miterlimit="10" enable-background="new    " points="
					399.744,-1332.149 -467.654,-1011.808 -467.12,-1332.149 				"/>
				<polygon opacity="0.5" fill="none" stroke="#FFFFFF" stroke-miterlimit="10" enable-background="new    " points="
					6.204,-390.95 1152.234,-932.425 835.61,-1332.214 				"/>
				<polygon opacity="0.5" fill="none" stroke="#FFFFFF" stroke-miterlimit="10" enable-background="new    " points="
					-467.12,-1332.149 -285.34,-964.126 6.309,-390.571 -467.12,-353.785 				"/>
				<polygon opacity="0.5" fill="none" stroke="#FFFFFF" stroke-miterlimit="10" enable-background="new    " points="
					-467.12,-353.473 -7.135,256.456 -467.12,624.892 				"/>
				<polygon opacity="0.5" fill="none" stroke="#FFFFFF" stroke-miterlimit="10" enable-background="new    " points="
					399.744,-1332.149 -467.311,-1012 6.327,-390.636 				"/>
			</g>
		</g>
	</g>
</g>
<g>
	<g>
		<g>
			<defs>
				<rect id="SVGID_4_" x="-468.396" y="-588.408" width="1881.541" height="888.778"/>
			</defs>
			<clipPath id="SVGID_5_">
				<use xlink:href="#SVGID_4_"  overflow="visible"/>
			</clipPath>
			<g clip-path="url(#SVGID_5_)">
				<polyline fill="#676868" points="-105.854,-490.754 -302.51,-65.832 -146.591,-65.838 44.188,-490.761 -105.854,-490.754 				
					"/>
				<polyline fill="#676868" points="49.175,-490.761 295.702,78.609 170.83,155.844 -78.376,-411.771 49.175,-490.761 				"/>
				<polyline fill="#989798" points="-105.704,-490.536 -235.262,-411.771 -78.376,-411.771 49.175,-490.761 -105.704,-490.536 				
					"/>
				<polyline fill="#FFFFFF" points="-38.832,-305.853 -35.313,-313.686 -33.428,-309.392 -38.832,-305.853 				"/>
				<polyline fill="#A6A2A2" points="-158.186,-227.666 -78.376,-411.771 -35.313,-313.686 -38.832,-305.853 -158.186,-227.666 				
					"/>
				<polyline fill="#A6A2A2" points="-33.428,-309.392 -35.313,-313.686 -78.376,-411.771 49.175,-490.761 -33.428,-309.394 				"/>
				<polyline fill="#E3E2E2" points="-256.848,4.828 -425.555,4.752 -304.869,-65.731 -146.974,-65.838 -146.945,-65.838 
					-256.848,4.828 				"/>
				<polyline fill="#FFFFFF" points="170.83,155.844 8.066,155.844 137.336,79.558 170.83,155.844 295.702,78.609 170.83,155.844 
									"/>
				<g>
					<g>
						<g>
							<defs>
								<rect id="SVGID_6_" x="-425.669" y="-490.761" width="721.369" height="656.8"/>
							</defs>
							<defs>
								<rect id="SVGID_7_" x="-425.669" y="-490.761" width="721.369" height="656.8"/>
							</defs>
							<defs>
								<rect id="SVGID_8_" x="-425.669" y="-490.761" width="721.369" height="656.8"/>
							</defs>
							<defs>
								<rect id="SVGID_9_" x="-425.669" y="-490.761" width="721.369" height="656.8"/>
							</defs>
							<defs>
								<rect id="SVGID_10_" x="-425.669" y="-490.761" width="721.369" height="656.8"/>
							</defs>
							<clipPath id="SVGID_11_">
								<use xlink:href="#SVGID_6_"  overflow="visible"/>
							</clipPath>
							<clipPath id="SVGID_12_" clip-path="url(#SVGID_11_)">
								<use xlink:href="#SVGID_7_"  overflow="visible"/>
							</clipPath>
							<clipPath id="SVGID_13_" clip-path="url(#SVGID_12_)">
								<use xlink:href="#SVGID_8_"  overflow="visible"/>
							</clipPath>
							<clipPath id="SVGID_14_" clip-path="url(#SVGID_13_)">
								<use xlink:href="#SVGID_9_"  overflow="visible"/>
							</clipPath>
							<clipPath id="SVGID_15_" clip-path="url(#SVGID_14_)">
								<use xlink:href="#SVGID_10_"  overflow="visible"/>
							</clipPath>
							<polyline clip-path="url(#SVGID_15_)" fill="#A6A2A2" points="170.83,155.844 137.336,79.558 138.2,79.047 295.702,78.609 
								170.83,155.844 							"/>
							<polygon clip-path="url(#SVGID_15_)" fill="#DEDEDD" points="-425.669,4.789 -333.569,166.039 -57.417,4.789 							"/>
						</g>
						<polygon fill="#333333" points="-116.797,-132.192 -146.591,-65.838 -88.035,-65.838 						"/>
						<g opacity="0.5" enable-background="new    ">
							<g>
								<g>
									<defs>
										<rect id="SVGID_16_" x="-425.669" y="-490.761" width="721.369" height="656.8"/>
									</defs>
									<defs>
										<rect id="SVGID_17_" x="-425.669" y="-490.761" width="721.369" height="656.8"/>
									</defs>
									<defs>
										<rect id="SVGID_18_" x="-425.669" y="-490.761" width="721.369" height="656.8"/>
									</defs>
									<defs>
										<rect id="SVGID_19_" x="-425.669" y="-490.761" width="721.369" height="656.8"/>
									</defs>
									<defs>
										<rect id="SVGID_20_" x="-425.669" y="-490.761" width="721.369" height="656.8"/>
									</defs>
									<clipPath id="SVGID_21_">
										<use xlink:href="#SVGID_16_"  overflow="visible"/>
									</clipPath>
									<clipPath id="SVGID_22_" clip-path="url(#SVGID_21_)">
										<use xlink:href="#SVGID_17_"  overflow="visible"/>
									</clipPath>
									<clipPath id="SVGID_23_" clip-path="url(#SVGID_22_)">
										<use xlink:href="#SVGID_18_"  overflow="visible"/>
									</clipPath>
									<clipPath id="SVGID_24_" clip-path="url(#SVGID_23_)">
										<use xlink:href="#SVGID_19_"  overflow="visible"/>
									</clipPath>
									<clipPath id="SVGID_25_" clip-path="url(#SVGID_24_)">
										<use xlink:href="#SVGID_20_"  overflow="visible"/>
									</clipPath>
									<polygon clip-path="url(#SVGID_25_)" fill="#989798" points="-78.376,-411.771 170.83,155.844 8.066,155.844 
										-158.186,-227.666 									"/>
									<polygon clip-path="url(#SVGID_25_)" fill="#CECCCC" points="-235.262,-411.771 -425.669,4.789 -257.631,4.789 
										-78.376,-411.771 									"/>
								</g>
							</g>
						</g>
						<rect x="-468.396" y="-594.7" opacity="0.6" fill="#87BC40" enable-background="new    " width="1887.638" height="877.92"/>
					</g>
				</g>
			</g>
			
				<line opacity="0.2" clip-path="url(#SVGID_5_)" fill="none" stroke="#FFFFFF" stroke-miterlimit="10" enable-background="new    " x1="513.753" y1="60.736" x2="1545.455" y2="-499.707"/>
			
				<line opacity="0.2" clip-path="url(#SVGID_5_)" fill="none" stroke="#FFFFFF" stroke-miterlimit="10" enable-background="new    " x1="513.753" y1="60.736" x2="1522.609" y2="-306.403"/>
			
				<line opacity="0.2" clip-path="url(#SVGID_5_)" fill="none" stroke="#FFFFFF" stroke-miterlimit="10" enable-background="new    " x1="140.455" y1="-451.381" x2="1530.338" y2="-189.853"/>
		</g>
	</g>
</g>
</svg>
